<?xml version="1.0" standalone="no"?>
<!DOCTYPE svg PUBLIC "-//W3C//DTD SVG 20010904//EN"
 "http://www.w3.org/TR/2001/REC-SVG-20010904/DTD/svg10.dtd">
<svg version="1.0" xmlns="http://www.w3.org/2000/svg"
 width="300.000000pt" height="233.000000pt" viewBox="0 0 300.000000 233.000000"
 preserveAspectRatio="xMidYMid meet">
<metadata>
Created by potrace 1.10, written by Peter Selinger 2001-2011
</metadata>
<g transform="translate(0.000000,233.000000) scale(0.100000,-0.100000)"
fill="#000000" stroke="none">
<path d="M2075 2274 c-33 -27 -255 -130 -339 -158 -161 -55 -353 -78 -475 -57
-36 6 -67 9 -69 7 -2 -2 4 -18 12 -35 26 -49 65 -206 82 -331 29 -210 3 -388
-83 -560 -79 -157 -251 -314 -415 -378 -21 -8 -38 -18 -38 -22 0 -9 53 -18
155 -26 80 -7 81 -6 164 36 217 109 439 269 616 446 109 109 275 310 275 334
0 11 -5 12 -139 39 -51 11 -95 21 -96 23 -2 2 79 97 180 212 l184 209 5 61
c13 146 15 216 8 216 -4 0 -16 -8 -27 -16z m-29 -236 c-8 -18 -63 -87 -121
-153 -199 -222 -225 -255 -225 -279 0 -35 33 -57 112 -75 39 -9 73 -21 75 -27
11 -34 -277 -342 -437 -466 -178 -138 -440 -288 -502 -288 -63 0 -61 14 8 60
129 85 240 215 304 355 93 204 100 469 20 770 -10 38 -18 71 -17 72 2 1 61 4
132 7 75 3 166 14 215 25 85 19 274 84 294 100 6 5 43 22 81 39 l70 31 3 -69
c2 -44 -2 -80 -12 -102z"/>
<path d="M2695 2069 c-56 -35 -169 -59 -374 -79 -57 -5 -126 -10 -153 -10 -38
0 -49 -3 -45 -14 3 -7 15 -47 27 -87 12 -41 42 -137 66 -213 24 -77 44 -144
44 -149 0 -5 -37 -7 -82 -5 -82 3 -82 3 -97 -26 -106 -201 -192 -320 -330
-456 -142 -141 -338 -271 -468 -310 -40 -12 -64 -37 -25 -26 9 2 49 7 87 11
610 55 1078 446 1305 1090 31 90 84 285 78 290 -2 1 -16 -6 -33 -16z m-30 -81
c-2 -7 -11 -41 -19 -75 -34 -139 -129 -348 -229 -508 -75 -119 -93 -142 -217
-265 -174 -174 -364 -285 -590 -345 -121 -32 -121 -25 2 61 167 116 326 299
450 514 l55 95 65 5 c75 6 108 27 108 69 0 14 -13 67 -29 116 -48 146 -81 267
-76 275 3 5 38 11 77 14 125 11 251 28 313 41 78 17 95 18 90 3z"/>
<path d="M1095 1475 c-5 -2 -93 -8 -195 -14 -550 -33 -560 -34 -617 -77 -43
-32 -67 -100 -60 -164 6 -46 316 -839 369 -944 48 -94 189 -196 292 -211 23
-4 178 3 346 14 344 24 696 48 845 57 166 10 218 31 255 104 40 78 31 116 -91
422 -61 153 -114 278 -117 278 -15 0 -72 -46 -68 -55 3 -5 46 -111 96 -235 86
-211 92 -229 88 -283 -7 -92 -55 -141 -153 -156 -33 -6 -150 -15 -260 -21
-110 -6 -252 -15 -315 -20 -215 -17 -437 -31 -516 -31 -115 -1 -179 25 -263
110 -64 64 -69 71 -135 236 -37 94 -113 282 -168 419 -92 229 -100 253 -96
302 5 63 43 119 94 140 23 10 160 23 402 39 202 14 373 27 380 30 6 2 12 18
12 35 l0 30 -57 -1 c-32 0 -62 -2 -68 -4z m-715 -103 c0 -5 -12 -19 -26 -33
-36 -32 -64 -95 -64 -144 0 -55 -19 -33 -26 31 -7 62 17 112 66 136 39 20 50
22 50 10z m1924 -983 c20 -100 -14 -176 -86 -194 -35 -9 -36 4 -2 36 36 33 64
96 64 147 0 49 15 56 24 11z"/>
<path d="M1715 666 c-2 -6 -8 -50 -14 -99 -7 -48 -14 -94 -17 -102 -4 -9 0
-15 10 -15 9 0 16 -1 16 -2 0 -2 -7 -39 -15 -83 -8 -44 -14 -86 -15 -92 0 -9
20 -13 65 -13 73 0 70 -3 80 83 4 31 9 57 13 57 4 0 22 -29 41 -65 l34 -64 81
6 c45 3 83 7 85 9 2 2 -4 10 -12 18 -9 9 -29 40 -47 68 -17 29 -36 61 -43 71
-9 13 -9 21 1 35 47 65 52 79 50 122 -3 40 -7 47 -38 63 -28 14 -58 17 -153
16 -79 -1 -120 -5 -122 -13z m256 -36 c26 -15 24 -56 -6 -109 -32 -55 -31 -72
5 -136 32 -56 31 -65 -9 -65 -19 0 -35 12 -61 48 -20 26 -45 48 -57 50 -25 4
-49 -27 -59 -75 -6 -31 -27 -49 -44 -38 -10 6 -5 273 6 300 4 11 12 23 18 27
17 12 185 9 207 -2z"/>
<path d="M1816 589 c-32 -38 -33 -60 -3 -94 19 -23 26 -25 48 -16 28 10 69 56
69 76 0 20 -48 65 -69 65 -10 0 -31 -14 -45 -31z m74 -34 c0 -17 -9 -29 -29
-39 -35 -19 -38 -16 -33 29 4 31 7 35 33 35 24 0 29 -4 29 -25z"/>
<path d="M1444 662 l-61 -3 -17 -116 c-14 -89 -15 -118 -6 -123 10 -6 10 -27
0 -94 -7 -48 -11 -89 -9 -90 2 -2 30 -1 61 1 l57 5 9 42 9 41 18 -37 19 -38
74 0 c40 0 72 3 70 8 -57 123 -83 172 -91 172 -5 0 16 29 47 64 31 35 56 67
56 70 0 3 -30 3 -67 0 -63 -5 -71 -9 -100 -42 -18 -21 -33 -34 -33 -31 0 4 7
41 16 83 8 42 14 80 12 84 -2 4 -30 6 -64 4z m16 -100 c0 -83 25 -101 82 -61
38 28 44 20 17 -26 l-22 -37 31 -64 c18 -36 32 -69 32 -74 0 -20 -47 -9 -70
15 -31 33 -50 31 -79 -5 -40 -51 -55 -40 -49 34 3 34 1 70 -3 79 -10 17 7 150
22 180 6 9 16 17 24 17 12 0 15 -14 15 -58z"/>
<path d="M1229 643 c-23 -4 -28 -11 -36 -53 l-10 -49 66 6 c36 3 67 6 68 7 0
1 4 22 8 49 l7 47 -38 -1 c-22 -1 -51 -4 -65 -6z"/>
<path d="M1095 629 c-38 -4 -105 -7 -147 -8 -86 -1 -90 -4 -102 -75 l-7 -38
78 7 c88 8 87 16 10 -73 -21 -24 -35 -47 -32 -52 4 -6 -12 -31 -33 -58 -27
-32 -42 -61 -46 -91 l-7 -43 128 6 c200 11 213 13 213 45 0 14 3 37 7 50 l6
24 -81 -7 c-45 -3 -82 -3 -82 2 0 4 14 21 30 37 17 16 28 35 25 43 -3 8 14 37
38 65 23 29 48 59 54 67 15 19 33 99 24 103 -3 1 -37 0 -76 -4z m25 -55 c0
-10 -19 -43 -43 -73 -24 -31 -58 -84 -75 -118 -30 -59 -31 -62 -14 -82 12 -15
31 -21 65 -23 28 -1 46 -6 44 -12 -4 -12 -131 -28 -192 -24 -34 3 -39 6 -37
23 2 11 16 36 31 55 16 19 31 45 35 58 4 12 13 28 19 34 28 29 57 77 57 95 0
29 -30 51 -75 55 l-40 3 55 10 c30 6 81 12 113 13 49 3 57 1 57 -14z"/>
<path d="M1173 458 c-7 -42 -6 -54 5 -56 10 -3 12 -15 8 -48 -3 -24 -9 -65
-12 -91 l-7 -46 33 6 c18 4 47 7 65 7 32 0 32 0 39 63 4 34 10 74 13 90 5 23
3 26 -11 21 -15 -6 -17 -2 -11 32 4 22 9 47 12 57 4 15 -4 17 -61 17 l-64 0
-9 -52z m90 -34 c16 -81 3 -154 -28 -154 -12 0 -15 12 -13 63 1 34 -2 72 -6
85 -8 25 9 55 28 49 6 -2 14 -21 19 -43z"/>
<path d="M2087 343 c-11 -10 -8 -41 3 -48 6 -4 18 -1 27 7 14 11 16 11 9 -1
-6 -9 -4 -12 5 -9 14 5 26 58 13 58 -4 0 -13 -8 -20 -17 -13 -17 -13 -17 -14
0 0 17 -11 22 -23 10z"/>
<path d="M2158 320 c-4 -25 -1 -30 16 -29 12 0 16 3 9 5 -13 6 -6 35 11 46 6
5 2 8 -10 8 -17 0 -23 -7 -26 -30z"/>
</g>
</svg>
